<svg width="41" height="60" viewBox="0 0 41 60" fill="none" xmlns="http://www.w3.org/2000/svg">
<g clip-path="url(#clip0_65_771)">
<mask id="path-1-outside-1_65_771" maskUnits="userSpaceOnUse" x="4" y="8.5" width="32" height="40" fill="black">
<rect fill="white" x="4" y="8.5" width="32" height="40"/>
<path d="M34.6712 42.2148H31.0614C31.0437 41.7662 30.8546 41.3416 30.533 41.0284C30.2115 40.7151 29.7823 40.537 29.3335 40.5306H28.6494C28.8287 40.2733 28.9235 39.9667 28.9211 39.6532V39.1884C28.9201 38.7852 28.7592 38.3988 28.4741 38.1133C28.1889 37.8282 27.8025 37.6676 27.3993 37.6663H25.7019C23.68 32.3111 24.0789 25.1271 24.193 23.5959H25.2632C25.8652 23.5938 26.3529 23.1061 26.3553 22.5041V22.1969C26.3504 21.5966 25.8637 21.1118 25.2632 21.1093H24.1229L25.1887 18.5786H25.1884C25.312 18.2824 25.2808 17.944 25.1052 17.6754C24.9296 17.4065 24.6322 17.2422 24.3113 17.2364H23.4779C23.2163 16.8809 22.9982 16.4951 22.829 16.0873C22.7118 15.7679 22.6729 15.4249 22.7148 15.0874C23.4803 14.6435 24.0108 13.8842 24.1635 13.0125C24.3161 12.1409 24.0754 11.2463 23.5063 10.5687C22.9373 9.89106 22.0975 9.5 21.2127 9.5C20.3279 9.5 19.4881 9.89099 18.919 10.5687C18.3497 11.2463 18.1092 12.1409 18.2619 13.0125C18.4146 13.8842 18.9448 14.6435 19.7105 15.0874C19.7344 15.4319 19.6836 15.7773 19.5612 16.1004C19.4352 16.5174 19.2247 16.9042 18.9429 17.2364H18.1095C17.7886 17.2422 17.4912 17.4065 17.3156 17.6754C17.1399 17.944 17.1087 18.2824 17.2323 18.5786L18.2982 21.1093H17.1534C16.8624 21.108 16.5831 21.2225 16.3766 21.4271C16.1704 21.6321 16.0535 21.9105 16.0526 22.2015V22.5086V22.5083C16.0572 23.1123 16.5495 23.5984 17.1534 23.596H18.4693C18.6789 26.5043 18.6039 29.426 18.2456 32.3202L16.8992 31.9518L16.8989 31.9515C16.6447 31.8814 16.3816 32.0307 16.3112 32.285L16.0527 33.1884C15.4913 33.178 14.9314 33.249 14.3902 33.3989L13.9251 32.5833H13.9254C13.8627 32.4725 13.7587 32.3911 13.636 32.3575C13.5133 32.3238 13.3824 32.3404 13.2719 32.4034L11.1974 33.583C11.0866 33.6458 11.0053 33.7498 10.9716 33.8725C10.9376 33.9951 10.9542 34.1264 11.0175 34.2368L11.4825 35.0525H11.4822C11.0827 35.4441 10.736 35.8864 10.4518 36.3684L9.5527 36.1227C9.43032 36.0872 9.29907 36.1031 9.18863 36.1664C9.07849 36.2295 8.99803 36.3338 8.96498 36.4562L8.33352 38.7586H8.33321C8.26315 39.0129 8.41245 39.276 8.66669 39.3464L9.57012 39.592C9.56676 40.1528 9.63773 40.7118 9.78061 41.2542L8.96497 41.7193C8.85453 41.782 8.77407 41.886 8.74102 42.0087C8.72726 42.0738 8.72726 42.1409 8.74102 42.206H5.32889C5.14716 42.206 5 42.3532 5 42.5349C5 42.7166 5.14716 42.8638 5.32889 42.8638H9.07451L9.97364 44.447V44.4473C10.0361 44.5581 10.1404 44.6392 10.2631 44.6731C10.3857 44.7068 10.5167 44.6903 10.6271 44.6272L11.4428 44.1622C11.8344 44.5618 12.2767 44.9084 12.7586 45.1929L12.513 46.092C12.4429 46.3463 12.5922 46.6094 12.8464 46.6798L15.1489 47.3112C15.4035 47.3813 15.6663 47.2323 15.7366 46.9781L15.9823 46.0746H16.0175V46.0743C16.5667 46.0746 17.1137 46.0039 17.6448 45.8638L18.1098 46.6795L18.1095 46.6798C18.1722 46.7905 18.2762 46.8716 18.3989 46.9055C18.5216 46.9392 18.6525 46.9227 18.763 46.8597L20.8376 45.68V45.6797C20.9483 45.6173 21.0297 45.5129 21.0633 45.3903C21.097 45.2676 21.0805 45.1366 21.0174 45.0262L20.7455 44.548H29.3334C29.7822 44.5419 30.2114 44.3635 30.5329 44.0502C30.8544 43.7369 31.0435 43.3123 31.0613 42.8638H34.6711C34.8528 42.8638 35 42.7167 35 42.5349C35 42.3532 34.8528 42.2061 34.6711 42.2061L34.6712 42.2148ZM28.2633 39.1884V39.6665C28.2633 39.8991 28.1709 40.1221 28.0063 40.2867C27.842 40.4513 27.6187 40.5437 27.3862 40.5437H23.6974V40.5174C23.7675 40.2628 23.6185 40 23.3642 39.9297L22.4608 39.684H22.4605C22.4623 39.23 22.4152 38.7772 22.3204 38.3329H27.3993C27.8702 38.34 28.2517 38.7175 28.2633 39.1884ZM18.864 12.5044C18.8594 11.8836 19.1017 11.2864 19.5377 10.8447C19.9739 10.4029 20.5677 10.1526 21.1885 10.1489C21.8093 10.1456 22.4059 10.3891 22.8467 10.826C23.2879 11.2629 23.5369 11.8573 23.5394 12.4781C23.5418 13.0989 23.2971 13.6948 22.8593 14.1351C22.4218 14.5753 21.8267 14.8234 21.206 14.8243C20.5886 14.8243 19.9963 14.5808 19.5576 14.1464C19.1192 13.7116 18.8698 13.1218 18.864 12.5044ZM20.1799 16.2938C20.2747 15.9995 20.3337 15.6944 20.3552 15.3857C20.9007 15.5469 21.481 15.5469 22.0262 15.3857C22.0311 15.6999 22.0874 16.0111 22.193 16.3069C22.3181 16.6324 22.4769 16.9442 22.6666 17.2367H19.7674C19.9537 16.9417 20.0997 16.623 20.2016 16.2895L20.1799 16.2938ZM17.807 18.3332C17.7638 18.2368 17.7724 18.1248 17.8302 18.0364C17.8877 17.9477 17.9862 17.8944 18.0921 17.8948H24.2981C24.404 17.8944 24.5025 17.9477 24.56 18.0364C24.6178 18.1248 24.6264 18.2368 24.5833 18.3332L23.4121 21.1182L18.9998 21.1185L17.807 18.3332ZM17.1535 22.9428C16.9112 22.9428 16.7147 22.7463 16.7147 22.5043V22.1972C16.7147 21.9549 16.9112 21.7588 17.1535 21.7588H25.2628C25.3791 21.7588 25.4908 21.805 25.5731 21.8872C25.6554 21.9692 25.7015 22.0809 25.7015 22.1972V22.5043C25.7015 22.6206 25.6553 22.7323 25.5731 22.8142C25.4908 22.8965 25.3791 22.9427 25.2628 22.9427L17.1535 22.9428ZM19.1228 23.5963H23.5088C23.3904 25.2542 23.0264 32.2758 24.9868 37.6619H22.8376L23.0701 37.5435C23.1809 37.4808 23.2623 37.3768 23.2959 37.2541C23.3296 37.1314 23.3131 37.0005 23.25 36.8901L22.0704 34.8155C21.9382 34.5869 21.6469 34.5068 21.4169 34.6356L20.6012 35.1006H20.6009C20.2096 34.7008 19.7672 34.3541 19.285 34.0699L19.5307 33.1708C19.6008 32.9165 19.4515 32.6534 19.1975 32.5831L18.8818 32.4953H18.8815C19.2526 29.5438 19.3334 26.5634 19.1229 23.5964L19.1228 23.5963ZM18.5963 46.2013L17.9606 45.0873L17.7106 45.1663C17.0779 45.3627 16.4159 45.4471 15.7544 45.4162H15.4913L15.1535 46.6485L13.1973 46.1134L13.5351 44.8811L13.3025 44.7584C12.7176 44.4476 12.1911 44.0379 11.7456 43.5478L11.5703 43.3505L10.4606 43.982L9.45624 42.2277L10.5613 41.5785L10.4823 41.3286C10.2896 40.6999 10.2067 40.0424 10.2367 39.3855V39.1224L9.03491 38.7672L9.57 36.811L10.7891 37.1487L10.9118 36.9162H10.9121C11.2175 36.3325 11.621 35.8059 12.105 35.3593L12.298 35.1839L11.6665 34.0697L13.4208 33.0653L14.0522 34.1749L14.3022 34.096H14.3025C14.9352 33.9008 15.5969 33.8161 16.2584 33.8461H16.5215L16.8593 32.6137L18.8155 33.1488L18.4778 34.3811L18.7103 34.5038C19.2952 34.8147 19.822 35.224 20.2672 35.7144L20.4425 35.9118L21.5522 35.2803L22.5566 37.0345L21.4469 37.666L21.5259 37.916H21.5262C21.7217 38.5489 21.8064 39.2107 21.7761 39.8722V40.1353L23.0084 40.473L22.4868 42.4555L21.2545 42.1178L21.1318 42.3503H21.1315C20.8194 42.9355 20.4085 43.4624 19.9166 43.9072L19.7235 44.0825L20.355 45.1922L18.5963 46.2013ZM30.4118 42.8197H30.4121C30.4121 43.4132 29.9309 43.8942 29.3373 43.8942H20.8372C21.118 43.5861 21.3677 43.2511 21.5827 42.8943L22.4862 43.14H22.4865C22.7392 43.2073 22.9992 43.0586 23.0696 42.8065L23.5083 41.1881H29.3328C29.9263 41.1881 30.4073 41.6693 30.4073 42.2626L30.4118 42.8197Z"/>
</mask>
<path d="M34.6712 42.2148H31.0614C31.0437 41.7662 30.8546 41.3416 30.533 41.0284C30.2115 40.7151 29.7823 40.537 29.3335 40.5306H28.6494C28.8287 40.2733 28.9235 39.9667 28.9211 39.6532V39.1884C28.9201 38.7852 28.7592 38.3988 28.4741 38.1133C28.1889 37.8282 27.8025 37.6676 27.3993 37.6663H25.7019C23.68 32.3111 24.0789 25.1271 24.193 23.5959H25.2632C25.8652 23.5938 26.3529 23.1061 26.3553 22.5041V22.1969C26.3504 21.5966 25.8637 21.1118 25.2632 21.1093H24.1229L25.1887 18.5786H25.1884C25.312 18.2824 25.2808 17.944 25.1052 17.6754C24.9296 17.4065 24.6322 17.2422 24.3113 17.2364H23.4779C23.2163 16.8809 22.9982 16.4951 22.829 16.0873C22.7118 15.7679 22.6729 15.4249 22.7148 15.0874C23.4803 14.6435 24.0108 13.8842 24.1635 13.0125C24.3161 12.1409 24.0754 11.2463 23.5063 10.5687C22.9373 9.89106 22.0975 9.5 21.2127 9.5C20.3279 9.5 19.4881 9.89099 18.919 10.5687C18.3497 11.2463 18.1092 12.1409 18.2619 13.0125C18.4146 13.8842 18.9448 14.6435 19.7105 15.0874C19.7344 15.4319 19.6836 15.7773 19.5612 16.1004C19.4352 16.5174 19.2247 16.9042 18.9429 17.2364H18.1095C17.7886 17.2422 17.4912 17.4065 17.3156 17.6754C17.1399 17.944 17.1087 18.2824 17.2323 18.5786L18.2982 21.1093H17.1534C16.8624 21.108 16.5831 21.2225 16.3766 21.4271C16.1704 21.6321 16.0535 21.9105 16.0526 22.2015V22.5086V22.5083C16.0572 23.1123 16.5495 23.5984 17.1534 23.596H18.4693C18.6789 26.5043 18.6039 29.426 18.2456 32.3202L16.8992 31.9518L16.8989 31.9515C16.6447 31.8814 16.3816 32.0307 16.3112 32.285L16.0527 33.1884C15.4913 33.178 14.9314 33.249 14.3902 33.3989L13.9251 32.5833H13.9254C13.8627 32.4725 13.7587 32.3911 13.636 32.3575C13.5133 32.3238 13.3824 32.3404 13.2719 32.4034L11.1974 33.583C11.0866 33.6458 11.0053 33.7498 10.9716 33.8725C10.9376 33.9951 10.9542 34.1264 11.0175 34.2368L11.4825 35.0525H11.4822C11.0827 35.4441 10.736 35.8864 10.4518 36.3684L9.5527 36.1227C9.43032 36.0872 9.29907 36.1031 9.18863 36.1664C9.07849 36.2295 8.99803 36.3338 8.96498 36.4562L8.33352 38.7586H8.33321C8.26315 39.0129 8.41245 39.276 8.66669 39.3464L9.57012 39.592C9.56676 40.1528 9.63773 40.7118 9.78061 41.2542L8.96497 41.7193C8.85453 41.782 8.77407 41.886 8.74102 42.0087C8.72726 42.0738 8.72726 42.1409 8.74102 42.206H5.32889C5.14716 42.206 5 42.3532 5 42.5349C5 42.7166 5.14716 42.8638 5.32889 42.8638H9.07451L9.97364 44.447V44.4473C10.0361 44.5581 10.1404 44.6392 10.2631 44.6731C10.3857 44.7068 10.5167 44.6903 10.6271 44.6272L11.4428 44.1622C11.8344 44.5618 12.2767 44.9084 12.7586 45.1929L12.513 46.092C12.4429 46.3463 12.5922 46.6094 12.8464 46.6798L15.1489 47.3112C15.4035 47.3813 15.6663 47.2323 15.7366 46.9781L15.9823 46.0746H16.0175V46.0743C16.5667 46.0746 17.1137 46.0039 17.6448 45.8638L18.1098 46.6795L18.1095 46.6798C18.1722 46.7905 18.2762 46.8716 18.3989 46.9055C18.5216 46.9392 18.6525 46.9227 18.763 46.8597L20.8376 45.68V45.6797C20.9483 45.6173 21.0297 45.5129 21.0633 45.3903C21.097 45.2676 21.0805 45.1366 21.0174 45.0262L20.7455 44.548H29.3334C29.7822 44.5419 30.2114 44.3635 30.5329 44.0502C30.8544 43.7369 31.0435 43.3123 31.0613 42.8638H34.6711C34.8528 42.8638 35 42.7167 35 42.5349C35 42.3532 34.8528 42.2061 34.6711 42.2061L34.6712 42.2148ZM28.2633 39.1884V39.6665C28.2633 39.8991 28.1709 40.1221 28.0063 40.2867C27.842 40.4513 27.6187 40.5437 27.3862 40.5437H23.6974V40.5174C23.7675 40.2628 23.6185 40 23.3642 39.9297L22.4608 39.684H22.4605C22.4623 39.23 22.4152 38.7772 22.3204 38.3329H27.3993C27.8702 38.34 28.2517 38.7175 28.2633 39.1884ZM18.864 12.5044C18.8594 11.8836 19.1017 11.2864 19.5377 10.8447C19.9739 10.4029 20.5677 10.1526 21.1885 10.1489C21.8093 10.1456 22.4059 10.3891 22.8467 10.826C23.2879 11.2629 23.5369 11.8573 23.5394 12.4781C23.5418 13.0989 23.2971 13.6948 22.8593 14.1351C22.4218 14.5753 21.8267 14.8234 21.206 14.8243C20.5886 14.8243 19.9963 14.5808 19.5576 14.1464C19.1192 13.7116 18.8698 13.1218 18.864 12.5044ZM20.1799 16.2938C20.2747 15.9995 20.3337 15.6944 20.3552 15.3857C20.9007 15.5469 21.481 15.5469 22.0262 15.3857C22.0311 15.6999 22.0874 16.0111 22.193 16.3069C22.3181 16.6324 22.4769 16.9442 22.6666 17.2367H19.7674C19.9537 16.9417 20.0997 16.623 20.2016 16.2895L20.1799 16.2938ZM17.807 18.3332C17.7638 18.2368 17.7724 18.1248 17.8302 18.0364C17.8877 17.9477 17.9862 17.8944 18.0921 17.8948H24.2981C24.404 17.8944 24.5025 17.9477 24.56 18.0364C24.6178 18.1248 24.6264 18.2368 24.5833 18.3332L23.4121 21.1182L18.9998 21.1185L17.807 18.3332ZM17.1535 22.9428C16.9112 22.9428 16.7147 22.7463 16.7147 22.5043V22.1972C16.7147 21.9549 16.9112 21.7588 17.1535 21.7588H25.2628C25.3791 21.7588 25.4908 21.805 25.5731 21.8872C25.6554 21.9692 25.7015 22.0809 25.7015 22.1972V22.5043C25.7015 22.6206 25.6553 22.7323 25.5731 22.8142C25.4908 22.8965 25.3791 22.9427 25.2628 22.9427L17.1535 22.9428ZM19.1228 23.5963H23.5088C23.3904 25.2542 23.0264 32.2758 24.9868 37.6619H22.8376L23.0701 37.5435C23.1809 37.4808 23.2623 37.3768 23.2959 37.2541C23.3296 37.1314 23.3131 37.0005 23.25 36.8901L22.0704 34.8155C21.9382 34.5869 21.6469 34.5068 21.4169 34.6356L20.6012 35.1006H20.6009C20.2096 34.7008 19.7672 34.3541 19.285 34.0699L19.5307 33.1708C19.6008 32.9165 19.4515 32.6534 19.1975 32.5831L18.8818 32.4953H18.8815C19.2526 29.5438 19.3334 26.5634 19.1229 23.5964L19.1228 23.5963ZM18.5963 46.2013L17.9606 45.0873L17.7106 45.1663C17.0779 45.3627 16.4159 45.4471 15.7544 45.4162H15.4913L15.1535 46.6485L13.1973 46.1134L13.5351 44.8811L13.3025 44.7584C12.7176 44.4476 12.1911 44.0379 11.7456 43.5478L11.5703 43.3505L10.4606 43.982L9.45624 42.2277L10.5613 41.5785L10.4823 41.3286C10.2896 40.6999 10.2067 40.0424 10.2367 39.3855V39.1224L9.03491 38.7672L9.57 36.811L10.7891 37.1487L10.9118 36.9162H10.9121C11.2175 36.3325 11.621 35.8059 12.105 35.3593L12.298 35.1839L11.6665 34.0697L13.4208 33.0653L14.0522 34.1749L14.3022 34.096H14.3025C14.9352 33.9008 15.5969 33.8161 16.2584 33.8461H16.5215L16.8593 32.6137L18.8155 33.1488L18.4778 34.3811L18.7103 34.5038C19.2952 34.8147 19.822 35.224 20.2672 35.7144L20.4425 35.9118L21.5522 35.2803L22.5566 37.0345L21.4469 37.666L21.5259 37.916H21.5262C21.7217 38.5489 21.8064 39.2107 21.7761 39.8722V40.1353L23.0084 40.473L22.4868 42.4555L21.2545 42.1178L21.1318 42.3503H21.1315C20.8194 42.9355 20.4085 43.4624 19.9166 43.9072L19.7235 44.0825L20.355 45.1922L18.5963 46.2013ZM30.4118 42.8197H30.4121C30.4121 43.4132 29.9309 43.8942 29.3373 43.8942H20.8372C21.118 43.5861 21.3677 43.2511 21.5827 42.8943L22.4862 43.14H22.4865C22.7392 43.2073 22.9992 43.0586 23.0696 42.8065L23.5083 41.1881H29.3328C29.9263 41.1881 30.4073 41.6693 30.4073 42.2626L30.4118 42.8197Z" fill="#333333"/>
<path d="M34.6712 42.2148H31.0614C31.0437 41.7662 30.8546 41.3416 30.533 41.0284C30.2115 40.7151 29.7823 40.537 29.3335 40.5306H28.6494C28.8287 40.2733 28.9235 39.9667 28.9211 39.6532V39.1884C28.9201 38.7852 28.7592 38.3988 28.4741 38.1133C28.1889 37.8282 27.8025 37.6676 27.3993 37.6663H25.7019C23.68 32.3111 24.0789 25.1271 24.193 23.5959H25.2632C25.8652 23.5938 26.3529 23.1061 26.3553 22.5041V22.1969C26.3504 21.5966 25.8637 21.1118 25.2632 21.1093H24.1229L25.1887 18.5786H25.1884C25.312 18.2824 25.2808 17.944 25.1052 17.6754C24.9296 17.4065 24.6322 17.2422 24.3113 17.2364H23.4779C23.2163 16.8809 22.9982 16.4951 22.829 16.0873C22.7118 15.7679 22.6729 15.4249 22.7148 15.0874C23.4803 14.6435 24.0108 13.8842 24.1635 13.0125C24.3161 12.1409 24.0754 11.2463 23.5063 10.5687C22.9373 9.89106 22.0975 9.5 21.2127 9.5C20.3279 9.5 19.4881 9.89099 18.919 10.5687C18.3497 11.2463 18.1092 12.1409 18.2619 13.0125C18.4146 13.8842 18.9448 14.6435 19.7105 15.0874C19.7344 15.4319 19.6836 15.7773 19.5612 16.1004C19.4352 16.5174 19.2247 16.9042 18.9429 17.2364H18.1095C17.7886 17.2422 17.4912 17.4065 17.3156 17.6754C17.1399 17.944 17.1087 18.2824 17.2323 18.5786L18.2982 21.1093H17.1534C16.8624 21.108 16.5831 21.2225 16.3766 21.4271C16.1704 21.6321 16.0535 21.9105 16.0526 22.2015V22.5086V22.5083C16.0572 23.1123 16.5495 23.5984 17.1534 23.596H18.4693C18.6789 26.5043 18.6039 29.426 18.2456 32.3202L16.8992 31.9518L16.8989 31.9515C16.6447 31.8814 16.3816 32.0307 16.3112 32.285L16.0527 33.1884C15.4913 33.178 14.9314 33.249 14.3902 33.3989L13.9251 32.5833H13.9254C13.8627 32.4725 13.7587 32.3911 13.636 32.3575C13.5133 32.3238 13.3824 32.3404 13.2719 32.4034L11.1974 33.583C11.0866 33.6458 11.0053 33.7498 10.9716 33.8725C10.9376 33.9951 10.9542 34.1264 11.0175 34.2368L11.4825 35.0525H11.4822C11.0827 35.4441 10.736 35.8864 10.4518 36.3684L9.5527 36.1227C9.43032 36.0872 9.29907 36.1031 9.18863 36.1664C9.07849 36.2295 8.99803 36.3338 8.96498 36.4562L8.33352 38.7586H8.33321C8.26315 39.0129 8.41245 39.276 8.66669 39.3464L9.57012 39.592C9.56676 40.1528 9.63773 40.7118 9.78061 41.2542L8.96497 41.7193C8.85453 41.782 8.77407 41.886 8.74102 42.0087C8.72726 42.0738 8.72726 42.1409 8.74102 42.206H5.32889C5.14716 42.206 5 42.3532 5 42.5349C5 42.7166 5.14716 42.8638 5.32889 42.8638H9.07451L9.97364 44.447V44.4473C10.0361 44.5581 10.1404 44.6392 10.2631 44.6731C10.3857 44.7068 10.5167 44.6903 10.6271 44.6272L11.4428 44.1622C11.8344 44.5618 12.2767 44.9084 12.7586 45.1929L12.513 46.092C12.4429 46.3463 12.5922 46.6094 12.8464 46.6798L15.1489 47.3112C15.4035 47.3813 15.6663 47.2323 15.7366 46.9781L15.9823 46.0746H16.0175V46.0743C16.5667 46.0746 17.1137 46.0039 17.6448 45.8638L18.1098 46.6795L18.1095 46.6798C18.1722 46.7905 18.2762 46.8716 18.3989 46.9055C18.5216 46.9392 18.6525 46.9227 18.763 46.8597L20.8376 45.68V45.6797C20.9483 45.6173 21.0297 45.5129 21.0633 45.3903C21.097 45.2676 21.0805 45.1366 21.0174 45.0262L20.7455 44.548H29.3334C29.7822 44.5419 30.2114 44.3635 30.5329 44.0502C30.8544 43.7369 31.0435 43.3123 31.0613 42.8638H34.6711C34.8528 42.8638 35 42.7167 35 42.5349C35 42.3532 34.8528 42.2061 34.6711 42.2061L34.6712 42.2148ZM28.2633 39.1884V39.6665C28.2633 39.8991 28.1709 40.1221 28.0063 40.2867C27.842 40.4513 27.6187 40.5437 27.3862 40.5437H23.6974V40.5174C23.7675 40.2628 23.6185 40 23.3642 39.9297L22.4608 39.684H22.4605C22.4623 39.23 22.4152 38.7772 22.3204 38.3329H27.3993C27.8702 38.34 28.2517 38.7175 28.2633 39.1884ZM18.864 12.5044C18.8594 11.8836 19.1017 11.2864 19.5377 10.8447C19.9739 10.4029 20.5677 10.1526 21.1885 10.1489C21.8093 10.1456 22.4059 10.3891 22.8467 10.826C23.2879 11.2629 23.5369 11.8573 23.5394 12.4781C23.5418 13.0989 23.2971 13.6948 22.8593 14.1351C22.4218 14.5753 21.8267 14.8234 21.206 14.8243C20.5886 14.8243 19.9963 14.5808 19.5576 14.1464C19.1192 13.7116 18.8698 13.1218 18.864 12.5044ZM20.1799 16.2938C20.2747 15.9995 20.3337 15.6944 20.3552 15.3857C20.9007 15.5469 21.481 15.5469 22.0262 15.3857C22.0311 15.6999 22.0874 16.0111 22.193 16.3069C22.3181 16.6324 22.4769 16.9442 22.6666 17.2367H19.7674C19.9537 16.9417 20.0997 16.623 20.2016 16.2895L20.1799 16.2938ZM17.807 18.3332C17.7638 18.2368 17.7724 18.1248 17.8302 18.0364C17.8877 17.9477 17.9862 17.8944 18.0921 17.8948H24.2981C24.404 17.8944 24.5025 17.9477 24.56 18.0364C24.6178 18.1248 24.6264 18.2368 24.5833 18.3332L23.4121 21.1182L18.9998 21.1185L17.807 18.3332ZM17.1535 22.9428C16.9112 22.9428 16.7147 22.7463 16.7147 22.5043V22.1972C16.7147 21.9549 16.9112 21.7588 17.1535 21.7588H25.2628C25.3791 21.7588 25.4908 21.805 25.5731 21.8872C25.6554 21.9692 25.7015 22.0809 25.7015 22.1972V22.5043C25.7015 22.6206 25.6553 22.7323 25.5731 22.8142C25.4908 22.8965 25.3791 22.9427 25.2628 22.9427L17.1535 22.9428ZM19.1228 23.5963H23.5088C23.3904 25.2542 23.0264 32.2758 24.9868 37.6619H22.8376L23.0701 37.5435C23.1809 37.4808 23.2623 37.3768 23.2959 37.2541C23.3296 37.1314 23.3131 37.0005 23.25 36.8901L22.0704 34.8155C21.9382 34.5869 21.6469 34.5068 21.4169 34.6356L20.6012 35.1006H20.6009C20.2096 34.7008 19.7672 34.3541 19.285 34.0699L19.5307 33.1708C19.6008 32.9165 19.4515 32.6534 19.1975 32.5831L18.8818 32.4953H18.8815C19.2526 29.5438 19.3334 26.5634 19.1229 23.5964L19.1228 23.5963ZM18.5963 46.2013L17.9606 45.0873L17.7106 45.1663C17.0779 45.3627 16.4159 45.4471 15.7544 45.4162H15.4913L15.1535 46.6485L13.1973 46.1134L13.5351 44.8811L13.3025 44.7584C12.7176 44.4476 12.1911 44.0379 11.7456 43.5478L11.5703 43.3505L10.4606 43.982L9.45624 42.2277L10.5613 41.5785L10.4823 41.3286C10.2896 40.6999 10.2067 40.0424 10.2367 39.3855V39.1224L9.03491 38.7672L9.57 36.811L10.7891 37.1487L10.9118 36.9162H10.9121C11.2175 36.3325 11.621 35.8059 12.105 35.3593L12.298 35.1839L11.6665 34.0697L13.4208 33.0653L14.0522 34.1749L14.3022 34.096H14.3025C14.9352 33.9008 15.5969 33.8161 16.2584 33.8461H16.5215L16.8593 32.6137L18.8155 33.1488L18.4778 34.3811L18.7103 34.5038C19.2952 34.8147 19.822 35.224 20.2672 35.7144L20.4425 35.9118L21.5522 35.2803L22.5566 37.0345L21.4469 37.666L21.5259 37.916H21.5262C21.7217 38.5489 21.8064 39.2107 21.7761 39.8722V40.1353L23.0084 40.473L22.4868 42.4555L21.2545 42.1178L21.1318 42.3503H21.1315C20.8194 42.9355 20.4085 43.4624 19.9166 43.9072L19.7235 44.0825L20.355 45.1922L18.5963 46.2013ZM30.4118 42.8197H30.4121C30.4121 43.4132 29.9309 43.8942 29.3373 43.8942H20.8372C21.118 43.5861 21.3677 43.2511 21.5827 42.8943L22.4862 43.14H22.4865C22.7392 43.2073 22.9992 43.0586 23.0696 42.8065L23.5083 41.1881H29.3328C29.9263 41.1881 30.4073 41.6693 30.4073 42.2626L30.4118 42.8197Z" stroke="#333333" stroke-width="0.6" mask="url(#path-1-outside-1_65_771)"/>
<path d="M11.8882 41.0083L11.7461 41.0557C11.2705 39.629 11.5388 38.0589 12.4614 36.8711L11.8882 41.0083ZM11.8882 41.0083L11.7461 41.0557C12.2218 42.4822 13.3784 43.5773 14.8291 43.9736L11.8882 41.0083ZM13.6131 37.0209L13.6131 37.0209C12.9628 37.6182 12.5592 38.4368 12.4814 39.3164L13.6131 37.0209ZM13.6131 37.0209C14.2632 36.4237 15.1134 36.0912 15.9962 36.0888C16.3147 36.0885 16.6317 36.1311 16.9387 36.215C17.845 36.464 18.6151 37.0624 19.0801 37.8792C19.5447 38.6961 19.6662 39.6638 19.4171 40.5701L19.4135 40.5831C19.1764 41.4284 18.6334 42.1559 17.8898 42.6233C17.1422 43.0932 16.2462 43.2667 15.3771 43.1097C14.5084 42.9527 13.7294 42.4763 13.1938 41.7745L13.0745 41.8655M13.6131 37.0209L13.0745 41.8655M16.0272 44.1369L16.0267 44.1369C15.6221 44.1363 15.2194 44.0812 14.8294 43.9737L16.0272 44.1369ZM16.0272 44.1369C17.629 44.1337 19.1082 43.2799 19.9118 41.8939C20.7153 40.5083 20.7219 38.8003 19.9292 37.4085C19.1861 36.1011 17.8391 35.251 16.339 35.1431M16.0272 44.1369L16.339 35.1431M13.0745 41.8655L13.1938 41.7745C12.6581 41.0727 12.4039 40.1961 12.4814 39.3165L13.0745 41.8655ZM16.339 35.1431C14.8388 35.0348 13.3839 35.6833 12.4614 36.8711L16.339 35.1431Z" fill="#333333" stroke="#333333" stroke-width="0.3"/>
</g>
<defs>
<clipPath id="clip0_65_771">
<rect width="40" height="40" fill="white" transform="translate(0.299988 7.125)"/>
</clipPath>
</defs>
</svg>
