<svg width="41" height="60" viewBox="0 0 41 60" fill="none" xmlns="http://www.w3.org/2000/svg">
<path d="M34.55 37.125C33.9932 37.1275 33.4441 37.2557 32.9438 37.5L27.5688 32.125H23.3V34.625H26.5325L31.1763 39.2688C30.9318 39.7691 30.8032 40.3181 30.8 40.875C30.8 41.6167 31.02 42.3417 31.432 42.9584C31.8441 43.5751 32.4297 44.0557 33.115 44.3396C33.8002 44.6234 34.5542 44.6976 35.2816 44.553C36.009 44.4083 36.6772 44.0511 37.2017 43.5267C37.7261 43.0022 38.0833 42.334 38.228 41.6066C38.3727 40.8792 38.2984 40.1252 38.0146 39.4399C37.7307 38.7547 37.2501 38.169 36.6334 37.757C36.0167 37.3449 35.2917 37.125 34.55 37.125ZM34.55 42.125C34.3028 42.125 34.0611 42.0517 33.8556 41.9143C33.65 41.777 33.4898 41.5818 33.3952 41.3534C33.3006 41.125 33.2758 40.8736 33.324 40.6311C33.3723 40.3887 33.4913 40.1659 33.6661 39.9911C33.8409 39.8163 34.0637 39.6973 34.3062 39.649C34.5486 39.6008 34.8 39.6255 35.0284 39.7202C35.2568 39.8148 35.452 39.975 35.5894 40.1805C35.7267 40.3861 35.8 40.6278 35.8 40.875C35.8 41.2065 35.6683 41.5245 35.4339 41.7589C35.1995 41.9933 34.8815 42.125 34.55 42.125ZM34.55 23.375C33.777 23.3773 33.0236 23.6188 32.3933 24.0665C31.7631 24.5141 31.2868 25.1459 31.03 25.875H23.3V28.375H31.03C31.2603 29.0215 31.6638 29.5922 32.1966 30.0248C32.7293 30.4575 33.3706 30.7354 34.0506 30.8281C34.7306 30.9209 35.4229 30.825 36.0521 30.5509C36.6812 30.2768 37.2229 29.835 37.6179 29.2739C38.013 28.7127 38.2462 28.0538 38.2921 27.3691C38.338 26.6843 38.1947 26.0002 37.8781 25.3913C37.5615 24.7825 37.0835 24.2724 36.4966 23.9168C35.9097 23.5612 35.2363 23.3738 34.55 23.375ZM34.55 28.375C34.3028 28.375 34.0611 28.3017 33.8556 28.1643C33.65 28.027 33.4898 27.8318 33.3952 27.6034C33.3006 27.3749 33.2758 27.1236 33.324 26.8811C33.3723 26.6387 33.4913 26.4159 33.6661 26.2411C33.8409 26.0663 34.0637 25.9473 34.3062 25.899C34.5486 25.8508 34.8 25.8755 35.0284 25.9702C35.2568 26.0648 35.452 26.225 35.5894 26.4305C35.7267 26.6361 35.8 26.8778 35.8 27.125C35.8 27.4565 35.6683 27.7745 35.4339 28.0089C35.1995 28.2433 34.8815 28.375 34.55 28.375ZM34.55 9.625C33.5558 9.62599 32.6025 10.0214 31.8995 10.7244C31.1964 11.4275 30.801 12.3807 30.8 13.375C30.8043 13.9738 30.9535 14.5627 31.235 15.0913L26.545 19.625H23.3V22.125H27.555L33.055 16.81C33.5659 17.0328 34.1201 17.1389 34.6772 17.1205C35.2342 17.1021 35.7802 16.9597 36.2753 16.7037C36.7704 16.4477 37.2022 16.0845 37.5392 15.6405C37.8763 15.1966 38.1101 14.6831 38.2236 14.1374C38.3371 13.5917 38.3276 13.0276 38.1956 12.4861C38.0636 11.9445 37.8125 11.4393 37.4606 11.007C37.1087 10.5748 36.6649 10.2264 36.1614 9.98735C35.6579 9.74828 35.1074 9.62449 34.55 9.625ZM34.55 14.625C34.3028 14.625 34.0611 14.5517 33.8556 14.4143C33.65 14.277 33.4898 14.0818 33.3952 13.8534C33.3006 13.6249 33.2758 13.3736 33.324 13.1311C33.3723 12.8887 33.4913 12.6659 33.6661 12.4911C33.8409 12.3163 34.0637 12.1973 34.3062 12.149C34.5486 12.1008 34.8 12.1255 35.0284 12.2202C35.2568 12.3148 35.452 12.475 35.5894 12.6805C35.7267 12.8861 35.8 13.1278 35.8 13.375C35.8 13.7065 35.6683 14.0245 35.4339 14.2589C35.1995 14.4933 34.8815 14.625 34.55 14.625Z" fill="#333333"/>
<path d="M23.3 14.625H25.8V12.125H23.3C22.5877 12.1274 21.8841 12.2829 21.2371 12.5809C20.5901 12.879 20.0148 13.3126 19.55 13.8525C19.0853 13.3126 18.5099 12.879 17.8629 12.5809C17.2159 12.2829 16.5124 12.1274 15.8 12.125H14.55C11.5673 12.1283 8.70779 13.3146 6.59872 15.4237C4.48965 17.5328 3.30333 20.3923 3.30002 23.375V30.875C3.30333 33.8577 4.48965 36.7172 6.59872 38.8263C8.70779 40.9354 11.5673 42.1217 14.55 42.125H15.8C16.5124 42.1226 17.2159 41.9671 17.8629 41.6691C18.5099 41.371 19.0853 40.9374 19.55 40.3975C20.0148 40.9374 20.5901 41.371 21.2371 41.6691C21.8841 41.9671 22.5877 42.1226 23.3 42.125H25.8V39.625H23.3C22.6372 39.6243 22.0017 39.3607 21.533 38.892C21.0643 38.4233 20.8007 37.7878 20.8 37.125V17.125C20.8007 16.4622 21.0643 15.8267 21.533 15.358C22.0017 14.8893 22.6372 14.6257 23.3 14.625ZM15.8 39.625H14.55C12.4481 39.6212 10.4176 38.8615 8.82949 37.4845C7.24138 36.1075 6.20158 34.2052 5.90002 32.125H8.30002V29.625H5.80002V24.625H9.55002C10.5443 24.624 11.4975 24.2286 12.2006 23.5256C12.9036 22.8225 13.299 21.8693 13.3 20.875V18.375H10.8V20.875C10.8 21.2065 10.6683 21.5245 10.4339 21.7589C10.1995 21.9933 9.88154 22.125 9.55002 22.125H5.90002C6.20158 20.0448 7.24138 18.1425 8.82949 16.7655C10.4176 15.3885 12.4481 14.6288 14.55 14.625H15.8C16.4629 14.6257 17.0984 14.8893 17.5671 15.358C18.0358 15.8267 18.2994 16.4622 18.3 17.125V22.125H15.8V24.625H18.3V29.625H15.8C14.8058 29.626 13.8525 30.0214 13.1495 30.7244C12.4464 31.4275 12.051 32.3807 12.05 33.375V35.875H14.55V33.375C14.55 33.0435 14.6817 32.7255 14.9161 32.4911C15.1506 32.2567 15.4685 32.125 15.8 32.125H18.3V37.125C18.2994 37.7878 18.0358 38.4233 17.5671 38.892C17.0984 39.3607 16.4629 39.6243 15.8 39.625Z" fill="#333333"/>
</svg>
