<svg width="15" height="21" viewBox="0 0 15 21" fill="none" xmlns="http://www.w3.org/2000/svg">
<path d="M7.50001 9.97921C6.80934 9.97921 6.14696 9.70484 5.65859 9.21646C5.17021 8.72809 4.89584 8.06571 4.89584 7.37504C4.89584 6.68437 5.17021 6.02199 5.65859 5.53362C6.14696 5.04524 6.80934 4.77087 7.50001 4.77087C8.19068 4.77087 8.85306 5.04524 9.34143 5.53362C9.82981 6.02199 10.1042 6.68437 10.1042 7.37504C10.1042 7.71703 10.0368 8.05566 9.90595 8.37161C9.77507 8.68756 9.58325 8.97465 9.34143 9.21646C9.09961 9.45828 8.81253 9.65011 8.49658 9.78098C8.18063 9.91185 7.84199 9.97921 7.50001 9.97921ZM7.50001 0.083374C5.56614 0.083374 3.71148 0.851601 2.34402 2.21905C0.97657 3.58651 0.208344 5.44117 0.208344 7.37504C0.208344 12.8438 7.50001 20.9167 7.50001 20.9167C7.50001 20.9167 14.7917 12.8438 14.7917 7.37504C14.7917 5.44117 14.0234 3.58651 12.656 2.21905C11.2885 0.851601 9.43388 0.083374 7.50001 0.083374Z" fill="white"/>
</svg>
