<svg width="17" height="17" viewBox="0 0 17 17" fill="none" xmlns="http://www.w3.org/2000/svg">
<path d="M12.9824 15.9376C12.3343 15.9376 11.4239 15.7031 10.0605 14.9415C8.40272 14.0118 7.12041 13.1535 5.47154 11.5089C3.88178 9.92016 3.10815 8.89152 2.02539 6.92125C0.802189 4.69664 1.0107 3.53055 1.24379 3.03217C1.52137 2.4365 1.93109 2.08023 2.46068 1.72662C2.76149 1.52954 3.07981 1.3606 3.41162 1.22193C3.44483 1.20766 3.4757 1.19404 3.50326 1.18176C3.66762 1.10771 3.91664 0.99582 4.23207 1.11535C4.44258 1.19437 4.63051 1.35607 4.92469 1.6466C5.52799 2.2416 6.35242 3.56674 6.65656 4.21752C6.86076 4.65613 6.9959 4.94566 6.99623 5.27039C6.99623 5.65057 6.80498 5.94375 6.57289 6.26018C6.5294 6.31961 6.48623 6.37639 6.4444 6.4315C6.19172 6.76353 6.13627 6.85949 6.17279 7.03082C6.24684 7.37514 6.79901 8.40012 7.70645 9.30557C8.61389 10.211 9.60932 10.7283 9.95496 10.802C10.1336 10.8402 10.2315 10.7824 10.5742 10.5208C10.6233 10.4833 10.6738 10.4444 10.7266 10.4056C11.0805 10.1423 11.3601 9.95602 11.7313 9.95602H11.7333C12.0564 9.95602 12.333 10.0961 12.7912 10.3272C13.3888 10.6287 14.7538 11.4425 15.3525 12.0465C15.6437 12.34 15.806 12.5273 15.8854 12.7374C16.0049 13.0539 15.8923 13.3019 15.819 13.4679C15.8067 13.4955 15.7931 13.5257 15.7788 13.5592C15.639 13.8904 15.4691 14.2081 15.2711 14.5082C14.9182 15.0361 14.5606 15.4448 13.9636 15.7227C13.657 15.8677 13.3215 15.9412 12.9824 15.9376Z" fill="white"/>
</svg>
