<svg width="17" height="13" viewBox="0 0 17 13" fill="none" xmlns="http://www.w3.org/2000/svg">
<path d="M0.166656 4.93333V9.625C0.166656 10.4538 0.495897 11.2487 1.08195 11.8347C1.668 12.4208 2.46285 12.75 3.29166 12.75H13.7083C14.5371 12.75 15.332 12.4208 15.918 11.8347C16.5041 11.2487 16.8333 10.4538 16.8333 9.625V4.93333L8.92707 8.49167C8.79278 8.55203 8.64722 8.58324 8.49999 8.58324C8.35276 8.58324 8.2072 8.55203 8.07291 8.49167L0.166656 4.93333ZM0.24374 2.68333L8.49999 6.4L16.7562 2.68333C16.5994 1.99224 16.2123 1.37498 15.6585 0.932832C15.1047 0.490683 14.417 0.249904 13.7083 0.25H3.29166C2.58299 0.249904 1.89533 0.490683 1.34151 0.932832C0.787685 1.37498 0.400592 1.99224 0.24374 2.68333Z" fill="white"/>
</svg>
