<svg width="41" height="60" viewBox="0 0 41 60" fill="none" xmlns="http://www.w3.org/2000/svg">
<path d="M19.05 28.2917L16.7583 25.9584C16.425 25.625 16.0294 25.4584 15.5717 25.4584C15.1128 25.4584 14.7167 25.625 14.3833 25.9584C14.05 26.2917 13.8767 26.6873 13.8633 27.145C13.8489 27.6039 14.0083 28 14.3417 28.3334L17.8833 31.875C18.2167 32.2084 18.6055 32.375 19.05 32.375C19.4944 32.375 19.8833 32.2084 20.2167 31.875L27.3 24.7917C27.6333 24.4584 27.8 24.0623 27.8 23.6034C27.8 23.1456 27.6333 22.75 27.3 22.4167C26.9667 22.0834 26.5711 21.9167 26.1133 21.9167C25.6544 21.9167 25.2583 22.0834 24.925 22.4167L19.05 28.2917ZM20.8 43.6667H20.3833C20.2444 43.6667 20.1194 43.6389 20.0083 43.5834C16.3694 42.4445 13.3694 40.1873 11.0083 36.8117C8.64722 33.4373 7.46666 29.7084 7.46666 25.625V17.75C7.46666 17.0556 7.66833 16.4306 8.07166 15.875C8.47388 15.3195 8.99444 14.9167 9.63333 14.6667L19.6333 10.9167C20.0222 10.7778 20.4111 10.7084 20.8 10.7084C21.1889 10.7084 21.5778 10.7778 21.9667 10.9167L31.9667 14.6667C32.6055 14.9167 33.1267 15.3195 33.53 15.875C33.9322 16.4306 34.1333 17.0556 34.1333 17.75V25.625C34.1333 29.7084 32.9528 33.4373 30.5917 36.8117C28.2305 40.1873 25.2305 42.4445 21.5917 43.5834C21.4528 43.6389 21.1889 43.6667 20.8 43.6667ZM20.8 40.2917C23.6889 39.375 26.0778 37.5417 27.9667 34.7917C29.8555 32.0417 30.8 28.9862 30.8 25.625V17.75L20.8 14L10.8 17.75V25.625C10.8 28.9862 11.7444 32.0417 13.6333 34.7917C15.5222 37.5417 17.9111 39.375 20.8 40.2917Z" fill="#333333"/>
</svg>
