<svg width="41" height="60" viewBox="0 0 41 60" fill="none" xmlns="http://www.w3.org/2000/svg">
<path d="M20.3 43.7917C18.0223 43.7917 15.8695 43.3539 13.8417 42.4784C11.8139 41.6039 10.0434 40.4095 8.53003 38.895C7.01558 37.3817 5.82114 35.6112 4.9467 33.5834C4.07114 31.5556 3.63336 29.4028 3.63336 27.125C3.63336 24.8195 4.07114 22.66 4.9467 20.6467C5.82114 18.6323 7.01558 16.8684 8.53003 15.355C10.0434 13.8406 11.8139 12.6456 13.8417 11.77C15.8695 10.8956 18.0223 10.4584 20.3 10.4584C20.8278 10.4584 21.3417 10.4862 21.8417 10.5417C22.3417 10.5973 22.8417 10.6667 23.3417 10.75V20.0417C23.0084 18.9028 22.5845 17.8262 22.07 16.8117C21.5567 15.7984 20.9667 14.8195 20.3 13.875C19.5778 14.875 18.9528 15.9167 18.425 17C17.8973 18.0834 17.4667 19.2362 17.1334 20.4584H23.3417V23.7917H16.3834C16.3 24.3473 16.2378 24.8962 16.1967 25.4384C16.1545 25.9795 16.1334 26.5417 16.1334 27.125C16.1334 27.7084 16.1545 28.2706 16.1967 28.8117C16.2378 29.3539 16.3 29.9028 16.3834 30.4584H24.2167C24.3 29.9028 24.3628 29.3539 24.405 28.8117C24.4461 28.2706 24.4667 27.7084 24.4667 27.125C24.4667 26.5417 24.4461 25.9795 24.405 25.4384C24.3628 24.8962 24.3 24.3473 24.2167 23.7917H27.55C27.6334 24.3473 27.6956 24.8962 27.7367 25.4384C27.7789 25.9795 27.8 26.5417 27.8 27.125C27.8 27.7084 27.7789 28.2706 27.7367 28.8117C27.6956 29.3539 27.6334 29.9028 27.55 30.4584H33.2167C33.3556 29.9028 33.46 29.3539 33.53 28.8117C33.5989 28.2706 33.6334 27.7084 33.6334 27.125C33.6334 26.5417 33.5989 25.9795 33.53 25.4384C33.46 24.8962 33.3556 24.3473 33.2167 23.7917H36.6334C36.7445 24.3473 36.8278 24.9028 36.8834 25.4584C36.9389 26.0139 36.9667 26.5695 36.9667 27.125C36.9667 29.4028 36.5289 31.5556 35.6534 33.5834C34.7789 35.6112 33.5845 37.3817 32.07 38.895C30.5567 40.4095 28.7928 41.6039 26.7784 42.4784C24.765 43.3539 22.6056 43.7917 20.3 43.7917ZM7.38336 30.4584H13.05C12.9667 29.9028 12.9039 29.3539 12.8617 28.8117C12.8206 28.2706 12.8 27.7084 12.8 27.125C12.8 26.5417 12.8206 25.9795 12.8617 25.4384C12.9039 24.8962 12.9667 24.3473 13.05 23.7917H7.38336C7.24447 24.3473 7.14003 24.8962 7.07003 25.4384C7.00114 25.9795 6.9667 26.5417 6.9667 27.125C6.9667 27.7084 7.00114 28.2706 7.07003 28.8117C7.14003 29.3539 7.24447 29.9028 7.38336 30.4584ZM15.9667 39.7084C15.4667 38.7917 15.0295 37.84 14.655 36.8534C14.2795 35.8678 13.9667 34.8473 13.7167 33.7917H8.80003C9.60558 35.1806 10.6123 36.3889 11.82 37.4167C13.0289 38.4445 14.4111 39.2084 15.9667 39.7084ZM8.80003 20.4584H13.7167C13.9667 19.4028 14.2795 18.3817 14.655 17.395C15.0295 16.4095 15.4667 15.4584 15.9667 14.5417C14.4111 15.0417 13.0289 15.8056 11.82 16.8334C10.6123 17.8612 9.60558 19.0695 8.80003 20.4584ZM20.3 40.375C21.0223 39.375 21.6473 38.3334 22.175 37.25C22.7028 36.1667 23.1334 35.0139 23.4667 33.7917H17.1334C17.4667 35.0139 17.8973 36.1667 18.425 37.25C18.9528 38.3334 19.5778 39.375 20.3 40.375ZM24.6334 39.7084C26.1889 39.2084 27.5706 38.4445 28.7784 37.4167C29.9872 36.3889 30.9945 35.1806 31.8 33.7917H26.8834C26.6334 34.8473 26.3211 35.8678 25.9467 36.8534C25.5711 37.84 25.1334 38.7917 24.6334 39.7084ZM26.9667 20.4584V10.4584H36.9667V20.4584H26.9667ZM31.9667 15.4584H35.3V12.125H31.9667V15.4584Z" fill="#333333"/>
</svg>
